<svg width="84" height="84" viewBox="0 0 84 84" fill="none" xmlns="http://www.w3.org/2000/svg">
<mask id="path-1-outside-1_102_5" maskUnits="userSpaceOnUse" x="-0.684692" y="-0.684677" width="84" height="84" fill="black">
<rect fill="white" x="-0.684692" y="-0.684677" width="84" height="84"/>
<path fill-rule="evenodd" clip-rule="evenodd" d="M66.4546 63.7444C71.6999 57.8612 74.8876 50.1036 74.8876 41.6015C74.8876 23.218 59.9849 8.31532 41.6014 8.31532C23.218 8.31532 8.31531 23.218 8.31531 41.6015C8.31531 59.9849 23.218 74.8876 41.6014 74.8876C47.9252 74.8876 53.8371 73.1241 58.8721 70.0622L68.2409 72.0718L66.4546 63.7444Z"/>
</mask>
<path d="M66.4546 63.7444L60.248 58.2107L57.4389 61.3613L58.3242 65.4884L66.4546 63.7444ZM58.8721 70.0622L60.6162 61.9318L57.3797 61.2376L54.5516 62.9575L58.8721 70.0622ZM68.2409 72.0718L66.4968 80.2022L79.0678 82.8987L76.3712 70.3278L68.2409 72.0718ZM74.8876 41.6015H66.5723C66.5723 47.9851 64.1877 53.7918 60.248 58.2107L66.4546 63.7444L72.6612 69.2781C79.2121 61.9306 83.2029 52.2221 83.2029 41.6015H74.8876ZM41.6014 8.31532V16.6306C55.3924 16.6306 66.5723 27.8105 66.5723 41.6015H74.8876H83.2029C83.2029 18.6256 64.5773 7.62939e-06 41.6014 7.62939e-06V8.31532ZM8.31531 41.6015H16.6306C16.6306 27.8105 27.8104 16.6306 41.6014 16.6306V8.31532V7.62939e-06C18.6256 7.62939e-06 -7.62939e-06 18.6256 -7.62939e-06 41.6015H8.31531ZM41.6014 74.8876V66.5723C27.8104 66.5723 16.6306 55.3925 16.6306 41.6015H8.31531H-7.62939e-06C-7.62939e-06 64.5773 18.6256 83.2029 41.6014 83.2029V74.8876ZM58.8721 70.0622L54.5516 62.9575C50.7816 65.25 46.3587 66.5723 41.6014 66.5723V74.8876V83.2029C49.4917 83.2029 56.8925 80.9982 63.1927 77.1669L58.8721 70.0622ZM58.8721 70.0622L57.1281 78.1925L66.4968 80.2022L68.2409 72.0718L69.9849 63.9415L60.6162 61.9318L58.8721 70.0622ZM68.2409 72.0718L76.3712 70.3278L74.585 62.0004L66.4546 63.7444L58.3242 65.4884L60.1105 73.8158L68.2409 72.0718Z" fill="black" mask="url(#path-1-outside-1_102_5)"/>
</svg>
